<svg xmlns="http://www.w3.org/2000/svg" width="1200" height="630" viewBox="0 0 1200 630">
  <defs>
    <linearGradient id="g" x1="0" y1="0" x2="1" y2="1">
      <stop offset="0%" stop-color="#151515"/>
      <stop offset="55%" stop-color="#322f2d"/>
      <stop offset="100%" stop-color="#5c1216"/>
    </linearGradient>
    <pattern id="dots" width="42" height="42" patternUnits="userSpaceOnUse">
      <circle cx="2" cy="2" r="1.4" fill="#c8a45d" fill-opacity="0.10"/>
    </pattern>
  </defs>
  <rect width="1200" height="630" fill="url(#g)"/>
  <rect width="1200" height="630" fill="url(#dots)"/>
<g transform="translate(600.0,250)">
    <circle cx="0" cy="0" r="76" fill="none" stroke="#c8a45d" stroke-opacity="0.55" stroke-width="1.5"/>
    <g fill="none" stroke="#e8d9b8" stroke-opacity="0.95" stroke-width="5" stroke-linecap="round" stroke-linejoin="round">
      <path d="M 0 -34 C -14 -46 -40 -46 -54 -40 L -54 38 C -40 32 -14 32 0 44"/>
      <path d="M 0 -34 C 14 -46 40 -46 54 -40 L 54 38 C 40 32 14 32 0 44"/>
      <line x1="0" y1="-34" x2="0" y2="44"/>
    </g>
  </g>
  <text x="600.0" y="560" font-family="Tahoma, Arial, sans-serif" font-size="30" fill="#ffffff" text-anchor="middle" font-weight="700">صورة مقال توضيحية</text>
  <text x="600.0" y="592" font-family="Arial, sans-serif" font-size="18" fill="#ffffff" fill-opacity="0.75" text-anchor="middle" letter-spacing="1">Bait Al Mataem Blog — Placeholder</text>
</svg>
